<?xml version="1.0" encoding="utf-8"?>
<!-- Generator: Adobe Illustrator 26.0.1, SVG Export Plug-In . SVG Version: 6.00 Build 0)  -->
<svg version="1.1" id="Layer_1" xmlns="http://www.w3.org/2000/svg" xmlns:xlink="http://www.w3.org/1999/xlink" x="0px" y="0px"
	 viewBox="0 0 1080 1080" style="enable-background:new 0 0 1080 1080;" xml:space="preserve">
<style type="text/css">
	.st0{fill:#231F20;}
</style>
<g>
	<g>
		<path class="st0" d="M461.44,657.07c2.15,2.61,4.56,4.22,7.25,4.83c2.69,0.62,5.5,0.25,8.46-1.09c2.95-1.34,5.43-2.68,7.42-4.03
			c1.99-1.34,4.33-3.12,7.02-5.35l2.3,2.3c1.46,1.61,2.92,3.22,4.37,4.83l2.3,2.3c-6.68,4.91-12.31,8.19-16.92,9.84
			c-4.6,1.65-9.17,1.63-13.7-0.06c-6.6-2.53-12.81-6.98-18.64-13.35c-3.45-3.84-5.45-8.38-5.98-13.64
			c-0.54-5.25,0.13-10.15,2.01-14.67c1.88-4.53,4.79-8.38,8.75-11.57c3.95-3.18,8.27-4.78,12.95-4.78c3.07,0,7.61,1.98,13.64,5.93
			c6.02,3.95,11.03,7.81,15.02,11.57c-0.08,0.23-3.13,2.59-9.15,7.08c-6.02,4.49-12.07,8.92-18.13,13.29L461.44,657.07z
			 M458.79,646.02l26.13-17.84c-5.52-3.53-10.23-4.83-14.1-3.91c-3.88,0.92-6.85,3.32-8.92,7.19
			C459.83,635.34,458.79,640.19,458.79,646.02z"/>
		<path class="st0" d="M549.37,614.03l14.39,3.22v55.13l-14.39-3.22v-5.75c-6.14,6.29-11.82,9.25-17.03,8.86
			c-2.46-0.16-6.83-2.99-13.12-8.52c-6.29-5.52-9.63-9.36-10.01-11.51c-0.31-1.99-0.46-14.73-0.46-38.21l14.27,3.22
			c-0.38,26.4-0.19,40.4,0.58,42.01c1.53,2.15,3.86,2.84,6.96,2.07c3.11-0.77,6.56-2.95,10.36-6.56c3.8-3.61,6.62-7.56,8.46-11.85
			V614.03z"/>
		<path class="st0" d="M604.04,671.8c-1.77-0.46-3.99-1.42-6.67-2.88c-2.69-1.46-4.68-2.65-5.99-3.57v32.8l-14.39-3.22
			c-0.23-51.02-0.23-77.07,0-78.15c4.83-1.38,8.69-2.36,11.57-2.93s6.16-0.96,9.84-1.15c3.68-0.19,7.19,0.27,10.53,1.38
			c3.34,1.11,6.77,2.82,10.3,5.12c4.6,3.07,7.98,6.7,10.13,10.88c2.15,4.18,3.09,8.29,2.82,12.32c-0.27,4.03-1.31,8.02-3.11,11.97
			c-1.8,3.95-4.09,7.33-6.85,10.13c-2.76,2.8-5.77,4.89-9.04,6.27C609.92,672.15,606.87,672.5,604.04,671.8z M611.75,654.54
			c2-2.68,3.59-5.54,4.78-8.57c1.19-3.03,1.84-5.89,1.96-8.57c0.12-2.68-0.12-5.24-0.69-7.65c-0.58-2.42-1.67-4.37-3.28-5.87
			s-3.47-2.51-5.58-3.05c-2.11-0.54-4.7-0.31-7.77,0.69c-3.07,1-6.33,2.76-9.78,5.29l-0.23,32.57c1.38,0.92,3.14,1.54,5.29,1.84
			c2.15,0.31,4.7-0.04,7.65-1.04C607.05,659.18,609.6,657.3,611.75,654.54z"/>
		<path class="st0" d="M649.73,628.53l-6.21-10.47c5.37-1.38,11.34-2.68,17.9-3.91c6.56-1.23,10.68-1.8,12.37-1.73
			c1.69,0.08,5.06,2.59,10.13,7.54c5.06,4.95,8.48,8.73,10.24,11.34c0.61,0.92,0.92,4.01,0.92,9.26c0,5.26-0.1,11.26-0.29,18.01
			c-0.19,6.75-0.25,11.32-0.17,13.7l-14.27-3.34l0.12-5.87c-6.21,6.22-11.28,9.32-15.19,9.32c-3.68-0.08-8.36-3.57-14.04-10.47
			c-5.68-6.91-8.52-11.85-8.52-14.85c0-2.38,1.61-4.56,4.83-6.56c3.22-1.99,7.15-3.55,11.8-4.66c4.64-1.11,8.77-1.97,12.37-2.59
			c3.61-0.61,6.67-1.04,9.21-1.27l0.12-3.11c0.08-3.68-1.88-5.68-5.87-5.98c-3.68-0.23-11.43,1.42-23.25,4.95h-0.11l-0.12,0.12
			h-0.12h-0.11l-0.12,0.12h-0.12h-0.12l-0.12,0.12h-0.12h-0.12l-0.12,0.12h-0.12h-0.12h-0.12l-0.11,0.12h-0.12h-0.12l-0.11,0.11
			H649.73z M655.48,657.42c0.69,1.08,1.99,1.77,3.91,2.07c1.92,0.31,4.81-0.21,8.69-1.55c3.87-1.34,8.07-3.7,12.6-7.08l0.12-10.13
			C660.54,646.64,652.1,652.2,655.48,657.42z"/>
		<path class="st0" d="M723.73,617.14v4.72c6.83-6.37,12.81-9.4,17.95-9.09c2.45,0.15,6.77,3.2,12.95,9.15
			c6.18,5.95,9.46,10,9.84,12.14c0.31,2,0.46,14.73,0.46,38.21l-14.27-3.22c0.46-26.32,0.27-40.24-0.58-41.78
			c-1.38-2.61-3.67-3.4-6.85-2.36c-3.18,1.04-6.48,2.9-9.9,5.58c-3.41,2.69-6.62,5.83-9.61,9.44v32.34l-14.96-3.22v-55.13
			L723.73,617.14z"/>
		<path class="st0" d="M791.86,657.07c2.15,2.61,4.56,4.22,7.25,4.83c2.68,0.62,5.5,0.25,8.46-1.09c2.95-1.34,5.43-2.68,7.42-4.03
			c1.99-1.34,4.33-3.12,7.02-5.35l2.3,2.3c1.46,1.61,2.92,3.22,4.37,4.83l2.3,2.3c-6.68,4.91-12.32,8.19-16.92,9.84
			c-4.6,1.65-9.17,1.63-13.7-0.06c-6.6-2.53-12.82-6.98-18.65-13.35c-3.45-3.84-5.45-8.38-5.98-13.64
			c-0.54-5.25,0.13-10.15,2.01-14.67c1.88-4.53,4.79-8.38,8.75-11.57c3.95-3.18,8.27-4.78,12.95-4.78c3.07,0,7.61,1.98,13.64,5.93
			c6.02,3.95,11.03,7.81,15.02,11.57c-0.08,0.23-3.13,2.59-9.15,7.08c-6.02,4.49-12.07,8.92-18.13,13.29L791.86,657.07z
			 M789.21,646.02l26.13-17.84c-5.52-3.53-10.23-4.83-14.1-3.91c-3.88,0.92-6.85,3.32-8.92,7.19
			C790.25,635.34,789.21,640.19,789.21,646.02z"/>
		<path class="st0" d="M850.21,671.46c-3.91-1.84-6.83-4.64-8.75-8.4c0.15-1.23,1.3-2.8,3.45-4.72c2.15-1.92,3.87-3.03,5.18-3.34
			c3.91,1.77,6.79,4.49,8.63,8.17C857.42,666.47,854.59,669.23,850.21,671.46z"/>
	</g>
	<g>
		<path class="st0" d="M397.8,491.89c-3.91-1.84-6.83-4.64-8.75-8.4c0.15-1.23,1.3-2.8,3.45-4.72c2.15-1.92,3.87-3.03,5.18-3.34
			c3.91,1.77,6.79,4.49,8.63,8.17C405.01,486.91,402.17,489.67,397.8,491.89z M404.71,502.14v55.13l-14.39-3.22v-55.13
			L404.71,502.14z"/>
		<path class="st0" d="M461.44,502.71l-1.27,6.21c-7.44-1.69-12.35-2.38-14.73-2.07c-3.76,0.46-6.71,2.28-8.86,5.47
			c-2.15,3.18-2.92,6.23-2.3,9.15c0.15,0.69,1.92,0.62,5.29-0.23c3.38-0.84,7.06-1.71,11.05-2.59c3.99-0.88,6.56-1.02,7.71-0.4
			c5.29,2.76,8.86,6.41,10.7,10.93c1.84,4.53,2.05,8.84,0.63,12.95c-1.42,4.11-4.32,7.65-8.69,10.65
			c-4.37,2.99-9.63,4.49-15.77,4.49c-5.06,0-9.76-1.4-14.1-4.2c-4.34-2.8-9.42-7-15.25-12.6l2.07-3.91
			c5.22,3.91,10.74,6.54,16.57,7.88c5.83,1.34,11.26,0.83,16.29-1.55c5.02-2.38,8.38-6.75,10.07-13.12
			c0.08-0.31-0.27-0.42-1.04-0.35c-0.85,0.08-2.95,0.58-6.33,1.5c-10.67,2.84-17.46,3.68-20.37,2.53l-1.04-0.58
			c-4.22-3.22-7.64-6.75-10.24-10.59c-1.92-2.61-2.7-5.37-2.36-8.29c0.35-2.92,1.32-5.58,2.93-8c1.61-2.42,4.03-4.41,7.25-5.98
			c3.22-1.57,6.75-2.36,10.59-2.36c1.15,0,2.78,0.23,4.89,0.69c2.11,0.46,5.1,1.25,8.98,2.36
			C458.01,501.81,460.45,502.48,461.44,502.71z"/>
		<path class="st0" d="M528.31,506.74l-4.14,5.98c-1.15-0.38-2.49-0.86-4.03-1.44c-1.54-0.58-2.72-1-3.57-1.27
			c-0.85-0.27-1.77-0.56-2.76-0.86c-1-0.31-1.82-0.52-2.47-0.63c-0.65-0.12-1.25-0.17-1.78-0.17c-4.99,0.23-9.21,3.45-12.66,9.67
			c-3.3,5.98-4.57,12.01-3.8,18.07c0.69,6.06,3.38,9.44,8.06,10.13c5.45,0.77,12.74-2.38,21.87-9.44l2.19,2.53
			c1.53,1.69,3.03,3.42,4.49,5.18l2.19,2.53c-2.99,2.23-5.62,4.03-7.88,5.41c-2.26,1.38-4.59,2.51-6.96,3.4
			c-2.38,0.88-4.7,1.3-6.96,1.27c-2.26-0.04-4.59-0.52-6.96-1.44c-6.6-2.53-12.81-6.98-18.64-13.35c-3.45-3.84-5.35-8.38-5.7-13.64
			c-0.35-5.25,0.58-10.15,2.76-14.67c2.19-4.53,5.43-8.38,9.73-11.57c4.3-3.18,8.98-4.78,14.04-4.78
			C507.67,497.65,515.34,500.68,528.31,506.74z"/>
		<path class="st0" d="M556.62,475.44v32c7.14-6.83,13.31-10.05,18.53-9.67c2.45,0.15,6.77,3.2,12.95,9.15
			c6.18,5.95,9.46,10,9.84,12.14c0.31,2,0.46,14.73,0.46,38.21l-14.27-3.22c0.46-26.32,0.27-40.24-0.58-41.78
			c-1.46-2.68-3.82-3.47-7.08-2.36c-3.26,1.11-6.64,3.11-10.13,5.98c-3.49,2.88-6.73,6.12-9.73,9.73v31.65l-14.39-3.22v-81.83
			L556.62,475.44z"/>
		<path class="st0" d="M615.89,513.53l-6.21-10.47c5.37-1.38,11.34-2.68,17.9-3.91c6.56-1.23,10.68-1.8,12.37-1.73
			c1.69,0.08,5.06,2.59,10.13,7.54c5.06,4.95,8.48,8.73,10.24,11.34c0.61,0.92,0.92,4.01,0.92,9.26c0,5.26-0.1,11.26-0.29,18.01
			c-0.19,6.75-0.25,11.32-0.17,13.7l-14.27-3.34l0.12-5.87c-6.21,6.22-11.28,9.32-15.19,9.32c-3.68-0.08-8.36-3.57-14.04-10.47
			c-5.68-6.91-8.52-11.85-8.52-14.85c0-2.38,1.61-4.56,4.83-6.56c3.22-1.99,7.15-3.55,11.8-4.66c4.64-1.11,8.76-1.97,12.37-2.59
			c3.61-0.61,6.68-1.04,9.21-1.27l0.12-3.11c0.08-3.68-1.88-5.68-5.87-5.98c-3.68-0.23-11.43,1.42-23.25,4.95h-0.11l-0.12,0.12
			h-0.12h-0.11l-0.12,0.12h-0.12h-0.12l-0.12,0.12h-0.12h-0.12l-0.12,0.12h-0.12h-0.12h-0.12l-0.11,0.12h-0.12h-0.12l-0.11,0.11
			H615.89z M621.65,542.42c0.69,1.08,1.99,1.77,3.91,2.07c1.92,0.31,4.81-0.21,8.69-1.55c3.87-1.34,8.07-3.7,12.6-7.08l0.12-10.13
			C626.71,531.64,618.27,537.2,621.65,542.42z"/>
		<path class="st0" d="M689.32,475.44v81.83l-14.39-3.22v-81.83L689.32,475.44z"/>
	</g>
	<g>
		<path class="st0" d="M191.9,668.93V521.84c0-25.79,7.72-46.43,23.16-61.92c15.44-15.49,36-23.24,61.67-23.24
			c25.57,0,45.13,7.53,58.69,22.58c13.56,15.05,20.34,36.69,20.34,64.91v144.77h-67.4V524.16c0-13.83-4.93-20.75-14.78-20.75
			c-9.52,0-14.28,6.92-14.28,20.75v144.77H191.9z"/>
	</g>
</g>
</svg>
