<?xml version="1.0" encoding="utf-8"?>
<!-- Generator: Adobe Illustrator 26.0.1, SVG Export Plug-In . SVG Version: 6.00 Build 0)  -->
<svg version="1.1" id="Layer_1" xmlns="http://www.w3.org/2000/svg" xmlns:xlink="http://www.w3.org/1999/xlink" x="0px" y="0px"
	 viewBox="0 0 1080 1080" style="enable-background:new 0 0 1080 1080;" xml:space="preserve">
<style type="text/css">
	.st0{fill:#8A0594;}
</style>
<g>
	<g>
		<path class="st0" d="M450.77,689.55c3.23,3.93,6.87,6.36,10.92,7.28c4.04,0.93,8.29,0.38,12.74-1.65
			c4.45-2.02,8.17-4.04,11.18-6.07c3-2.02,6.53-4.71,10.57-8.06l3.47,3.47c2.19,2.43,4.39,4.85,6.59,7.28l3.47,3.47
			c-10.05,7.4-18.54,12.33-25.48,14.82c-6.93,2.48-13.81,2.45-20.62-0.09c-9.94-3.81-19.3-10.51-28.07-20.1
			c-5.2-5.78-8.21-12.62-9.01-20.54c-0.81-7.91,0.2-15.28,3.03-22.1c2.83-6.82,7.22-12.62,13.17-17.42
			c5.95-4.79,12.45-7.19,19.5-7.19c4.62,0,11.46,2.97,20.54,8.92c9.07,5.95,16.61,11.76,22.62,17.42
			c-0.12,0.35-4.71,3.9-13.78,10.66c-9.07,6.76-18.17,13.43-27.3,20.02L450.77,689.55z M446.78,672.91l39.34-26.86
			c-8.32-5.31-15.4-7.28-21.23-5.89c-5.84,1.39-10.31,5-13.43,10.83C448.34,656.82,446.78,664.13,446.78,672.91z"/>
		<path class="st0" d="M583.17,624.73l21.66,4.85v83.01l-21.66-4.85v-8.67c-9.24,9.47-17.79,13.92-25.65,13.34
			c-3.7-0.23-10.28-4.51-19.76-12.82c-9.48-8.32-14.5-14.09-15.08-17.33c-0.46-3-0.69-22.18-0.69-57.54l21.49,4.85
			c-0.58,39.75-0.29,60.83,0.87,63.25c2.31,3.24,5.81,4.28,10.48,3.12c4.68-1.15,9.88-4.45,15.6-9.88
			c5.72-5.43,9.96-11.38,12.74-17.85V624.73z"/>
		<path class="st0" d="M665.49,711.73c-2.66-0.69-6.01-2.14-10.05-4.33c-4.05-2.19-7.05-3.99-9.01-5.37v49.39l-21.66-4.85
			c-0.35-76.83-0.35-116.05,0-117.67c7.28-2.08,13.08-3.55,17.42-4.42c4.33-0.87,9.27-1.44,14.82-1.73
			c5.55-0.29,10.83,0.41,15.86,2.08c5.03,1.68,10.19,4.25,15.51,7.71c6.93,4.62,12.01,10.08,15.25,16.38
			c3.24,6.3,4.65,12.48,4.25,18.54c-0.41,6.07-1.97,12.07-4.68,18.02c-2.72,5.95-6.15,11.03-10.31,15.25
			c-4.16,4.22-8.7,7.36-13.6,9.44C674.35,712.25,669.76,712.77,665.49,711.73z M677.1,685.74c3-4.04,5.4-8.35,7.19-12.91
			c1.79-4.56,2.77-8.87,2.95-12.91c0.17-4.04-0.17-7.88-1.04-11.52c-0.87-3.64-2.51-6.59-4.94-8.84c-2.43-2.25-5.23-3.78-8.41-4.59
			c-3.18-0.81-7.08-0.46-11.7,1.04c-4.62,1.5-9.53,4.16-14.73,7.97l-0.35,49.04c2.08,1.39,4.73,2.31,7.97,2.77
			c3.24,0.46,7.08-0.06,11.53-1.56C670.02,692.73,673.86,689.9,677.1,685.74z"/>
		<path class="st0" d="M734.29,646.57l-9.36-15.77c8.08-2.08,17.07-4.04,26.95-5.89c9.88-1.85,16.09-2.71,18.63-2.6
			c2.54,0.12,7.62,3.9,15.25,11.35c7.63,7.45,12.77,13.14,15.42,17.07c0.92,1.39,1.39,6.04,1.39,13.95c0,7.92-0.15,16.96-0.43,27.12
			c-0.29,10.17-0.38,17.04-0.26,20.62l-21.49-5.03l0.17-8.84c-9.36,9.36-16.98,14.04-22.87,14.04c-5.55-0.12-12.59-5.37-21.14-15.77
			c-8.55-10.4-12.83-17.85-12.83-22.36c0-3.58,2.43-6.87,7.28-9.88c4.85-3,10.77-5.34,17.76-7.02c6.99-1.67,13.2-2.97,18.63-3.9
			c5.43-0.92,10.05-1.56,13.86-1.91l0.17-4.68c0.11-5.55-2.83-8.55-8.84-9.01c-5.55-0.35-17.22,2.14-35.01,7.45h-0.17l-0.17,0.17
			h-0.17h-0.17l-0.17,0.17h-0.17h-0.17l-0.17,0.17h-0.17h-0.17l-0.17,0.17h-0.17h-0.17h-0.17l-0.17,0.17h-0.17h-0.17l-0.17,0.17
			H734.29z M742.95,690.07c1.04,1.62,3,2.66,5.89,3.12c2.89,0.46,7.25-0.32,13.08-2.34c5.83-2.02,12.16-5.57,18.98-10.66l0.17-15.25
			C750.58,673.84,737.87,682.21,742.95,690.07z"/>
		<path class="st0" d="M845.72,629.41v7.11c10.28-9.59,19.29-14.15,27.04-13.69c3.7,0.23,10.19,4.82,19.5,13.78
			c9.3,8.96,14.24,15.05,14.82,18.28c0.46,3.01,0.69,22.18,0.69,57.54l-21.49-4.85c0.69-39.63,0.4-60.6-0.87-62.91
			c-2.08-3.93-5.52-5.11-10.31-3.55c-4.8,1.56-9.76,4.36-14.9,8.41c-5.14,4.05-9.96,8.78-14.47,14.21v48.7l-22.53-4.85v-83.01
			L845.72,629.41z"/>
		<path class="st0" d="M948.31,689.55c3.23,3.93,6.87,6.36,10.92,7.28c4.04,0.93,8.29,0.38,12.74-1.65
			c4.45-2.02,8.17-4.04,11.18-6.07c3-2.02,6.53-4.71,10.57-8.06l3.47,3.47c2.19,2.43,4.39,4.85,6.59,7.28l3.47,3.47
			c-10.05,7.4-18.54,12.33-25.48,14.82c-6.93,2.48-13.81,2.45-20.62-0.09c-9.94-3.81-19.3-10.51-28.08-20.1
			c-5.2-5.78-8.2-12.62-9.01-20.54c-0.81-7.91,0.2-15.28,3.03-22.1c2.83-6.82,7.22-12.62,13.17-17.42
			c5.95-4.79,12.45-7.19,19.5-7.19c4.62,0,11.47,2.97,20.54,8.92c9.07,5.95,16.61,11.76,22.62,17.42
			c-0.12,0.35-4.71,3.9-13.78,10.66c-9.07,6.76-18.17,13.43-27.3,20.02L948.31,689.55z M944.33,672.91l39.34-26.86
			c-8.32-5.31-15.4-7.28-21.23-5.89c-5.83,1.39-10.31,5-13.43,10.83C945.89,656.82,944.33,664.13,944.33,672.91z"/>
		<path class="st0" d="M1036.18,711.21c-5.89-2.77-10.28-6.99-13.17-12.65c0.23-1.85,1.96-4.22,5.2-7.11
			c3.23-2.89,5.83-4.56,7.8-5.02c5.89,2.66,10.23,6.76,13,12.3C1047.03,703.7,1042.76,707.86,1036.18,711.21z"/>
	</g>
	<g>
		<path class="st0" d="M354.94,440.82c-5.89-2.77-10.28-6.99-13.17-12.65c0.23-1.85,1.96-4.22,5.2-7.11
			c3.23-2.89,5.83-4.56,7.8-5.03c5.89,2.66,10.22,6.76,13,12.31C365.8,433.32,361.53,437.47,354.94,440.82z M365.34,456.25v83.01
			l-21.66-4.85V451.4L365.34,456.25z"/>
		<path class="st0" d="M450.78,457.11l-1.91,9.36c-11.21-2.54-18.6-3.58-22.18-3.12c-5.66,0.69-10.11,3.44-13.34,8.23
			c-3.24,4.8-4.39,9.39-3.47,13.78c0.23,1.04,2.89,0.93,7.97-0.35c5.08-1.27,10.63-2.57,16.64-3.9c6.01-1.33,9.88-1.53,11.61-0.61
			c7.97,4.16,13.34,9.65,16.12,16.47c2.77,6.82,3.09,13.32,0.95,19.5c-2.14,6.18-6.5,11.52-13.08,16.03
			c-6.59,4.51-14.5,6.76-23.74,6.76c-7.63,0-14.7-2.11-21.23-6.33c-6.53-4.22-14.18-10.54-22.96-18.98l3.12-5.89
			c7.86,5.89,16.17,9.85,24.96,11.87c8.78,2.02,16.95,1.24,24.52-2.34c7.57-3.58,12.62-10.17,15.16-19.76
			c0.11-0.46-0.41-0.63-1.56-0.52c-1.27,0.12-4.45,0.87-9.53,2.25c-16.06,4.28-26.29,5.55-30.67,3.81l-1.56-0.87
			c-6.36-4.85-11.5-10.17-15.42-15.94c-2.89-3.93-4.07-8.08-3.55-12.48c0.52-4.39,1.99-8.41,4.42-12.04
			c2.43-3.64,6.07-6.64,10.92-9.01c4.85-2.37,10.17-3.55,15.94-3.55c1.73,0,4.19,0.35,7.37,1.04c3.18,0.69,7.68,1.88,13.52,3.55
			C445.6,455.76,449.27,456.77,450.78,457.11z"/>
		<path class="st0" d="M551.46,463.18l-6.24,9.01c-1.73-0.58-3.76-1.3-6.07-2.17c-2.31-0.87-4.1-1.5-5.37-1.91
			c-1.27-0.4-2.66-0.84-4.16-1.3c-1.5-0.46-2.75-0.78-3.73-0.95c-0.98-0.17-1.88-0.26-2.69-0.26c-7.51,0.35-13.86,5.2-19.06,14.56
			c-4.97,9.01-6.88,18.08-5.72,27.21c1.04,9.13,5.08,14.21,12.13,15.25c8.2,1.16,19.18-3.58,32.93-14.21l3.29,3.81
			c2.31,2.54,4.56,5.14,6.76,7.8l3.29,3.81c-4.51,3.35-8.46,6.07-11.87,8.15c-3.41,2.08-6.9,3.78-10.48,5.11
			c-3.58,1.33-7.08,1.96-10.48,1.91c-3.41-0.06-6.91-0.78-10.49-2.17c-9.94-3.81-19.3-10.51-28.07-20.1
			c-5.2-5.78-8.06-12.62-8.58-20.54c-0.52-7.91,0.87-15.28,4.16-22.1c3.29-6.82,8.17-12.62,14.64-17.42
			c6.47-4.79,13.52-7.19,21.14-7.19C520.38,449.49,531.94,454.05,551.46,463.18z"/>
		<path class="st0" d="M594.09,416.04v48.18c10.74-10.28,20.04-15.13,27.9-14.56c3.7,0.23,10.19,4.82,19.5,13.78
			c9.3,8.96,14.24,15.05,14.82,18.28c0.46,3.01,0.69,22.18,0.69,57.54l-21.49-4.85c0.69-39.63,0.4-60.6-0.87-62.91
			c-2.2-4.04-5.75-5.23-10.66-3.55c-4.91,1.68-9.99,4.68-15.25,9.01c-5.26,4.33-10.14,9.22-14.64,14.64v47.66l-21.66-4.85V411.19
			L594.09,416.04z"/>
		<path class="st0" d="M683.34,473.4l-9.36-15.77c8.08-2.08,17.07-4.04,26.95-5.89c9.88-1.85,16.09-2.71,18.63-2.6
			c2.54,0.12,7.62,3.9,15.25,11.35c7.62,7.45,12.77,13.14,15.42,17.07c0.92,1.39,1.39,6.04,1.39,13.95c0,7.92-0.15,16.96-0.43,27.12
			c-0.29,10.17-0.38,17.04-0.26,20.62l-21.49-5.03l0.17-8.84c-9.36,9.36-16.98,14.04-22.87,14.04c-5.55-0.12-12.59-5.37-21.14-15.77
			c-8.55-10.4-12.83-17.85-12.83-22.36c0-3.58,2.43-6.87,7.28-9.88c4.85-3,10.77-5.34,17.76-7.02c6.99-1.67,13.2-2.97,18.63-3.9
			c5.43-0.92,10.05-1.56,13.87-1.91l0.17-4.68c0.11-5.55-2.83-8.55-8.84-9.01c-5.55-0.35-17.22,2.14-35.01,7.45h-0.17l-0.17,0.17
			h-0.17h-0.17l-0.17,0.17h-0.17h-0.17l-0.17,0.17h-0.17h-0.17l-0.17,0.17h-0.17h-0.17h-0.17l-0.17,0.17h-0.17h-0.17l-0.17,0.17
			H683.34z M692.01,516.9c1.04,1.62,3,2.66,5.89,3.12c2.89,0.46,7.25-0.32,13.08-2.34c5.83-2.02,12.16-5.57,18.98-10.66l0.17-15.25
			C699.63,500.67,686.92,509.05,692.01,516.9z"/>
		<path class="st0" d="M793.91,416.04v123.22l-21.66-4.85V411.19L793.91,416.04z"/>
	</g>
	<g>
		<path class="st0" d="M44.9,707.4V485.91c0-38.83,11.62-69.91,34.87-93.24c23.25-23.33,54.2-35,92.87-35
			c38.5,0,67.95,11.34,88.37,34c20.41,22.67,30.62,55.25,30.62,97.74V707.4H190.14V489.41c0-20.83-7.42-31.25-22.25-31.25
			c-14.34,0-21.5,10.42-21.5,31.25V707.4H44.9z"/>
	</g>
</g>
</svg>
