<svg id="Layer_1" data-name="Layer 1" xmlns="http://www.w3.org/2000/svg" viewBox="0 0 1004.1 393.75"><defs><style>.cls-1{fill:#fff;}</style></defs><path class="cls-1" d="M450.77,689.55q4.85,5.9,10.92,7.28a19.71,19.71,0,0,0,12.74-1.65,77.07,77.07,0,0,0,11.17-6.07,132.09,132.09,0,0,0,10.57-8.05l3.47,3.46q3.28,3.65,6.59,7.28l3.46,3.47q-15.07,11.09-25.47,14.82a29.2,29.2,0,0,1-20.63-.09q-14.89-5.71-28.07-20.1a35.24,35.24,0,0,1-9-20.54,44.87,44.87,0,0,1,3-22.1,43.54,43.54,0,0,1,13.17-17.41,30.39,30.39,0,0,1,19.5-7.2q6.93,0,20.53,8.93A165.48,165.48,0,0,1,505.36,649q-.18.51-13.78,10.65t-27.29,20Zm-4-16.64,39.34-26.86q-12.48-8-21.23-5.89T451.46,651Q446.78,659.74,446.78,672.91Z" transform="translate(-44.9 -357.67)"/><path class="cls-1" d="M583.17,624.73l21.66,4.86v83l-21.66-4.85v-8.67q-13.86,14.2-25.65,13.34-5.55-.34-19.75-12.82t-15.08-17.33q-.69-4.5-.69-57.54l21.48,4.86q-.86,59.61.87,63.25,3.46,4.86,10.49,3.12t15.59-9.88a53.86,53.86,0,0,0,12.74-17.85Z" transform="translate(-44.9 -357.67)"/><path class="cls-1" d="M665.49,711.73a47.38,47.38,0,0,1-10-4.33,97.85,97.85,0,0,1-9-5.37v49.39l-21.67-4.85q-.51-115.24,0-117.68,10.92-3.12,17.42-4.42A104.66,104.66,0,0,1,657,622.74a42.73,42.73,0,0,1,15.85,2.08,68.2,68.2,0,0,1,15.51,7.71q10.41,6.93,15.25,16.38a35.11,35.11,0,0,1,4.25,18.54,51.67,51.67,0,0,1-4.68,18,52.42,52.42,0,0,1-10.31,15.25,42.18,42.18,0,0,1-13.6,9.44Q671.89,713.29,665.49,711.73Zm11.61-26a55.87,55.87,0,0,0,7.19-12.92,40.33,40.33,0,0,0,3-12.91,42.18,42.18,0,0,0-1-11.52,17.12,17.12,0,0,0-4.94-8.84,19.15,19.15,0,0,0-8.41-4.59c-3.18-.81-7.07-.46-11.7,1a53.13,53.13,0,0,0-14.72,8l-.35,49a19,19,0,0,0,8,2.78q4.85.69,11.53-1.56A24.44,24.44,0,0,0,677.1,685.74Z" transform="translate(-44.9 -357.67)"/><path class="cls-1" d="M734.29,646.57l-9.36-15.77q12.12-3.12,27-5.89t18.63-2.6q3.81.16,15.25,11.35t15.42,17.07q1.4,2.09,1.39,13.95t-.43,27.12q-.43,15.26-.26,20.62l-21.49-5,.17-8.84q-14,14-22.88,14-8.31-.18-21.14-15.77t-12.82-22.36q0-5.37,7.27-9.88a60.7,60.7,0,0,1,17.77-7q10.49-2.51,18.63-3.9t13.86-1.9l.18-4.68q.17-8.33-8.84-9-8.33-.52-35,7.45h-.17l-.18.17h-.34l-.18.18h-.34l-.18.17h-.34l-.18.17h-.52l-.17.18h-.35l-.17.17Zm8.66,43.5c1,1.62,3,2.66,5.89,3.12s7.25-.32,13.09-2.34,12.16-5.57,19-10.66l.17-15.25Q735.33,678.29,743,690.07Z" transform="translate(-44.9 -357.67)"/><path class="cls-1" d="M845.72,629.41v7.11q15.42-14.38,27-13.69,5.54.34,19.49,13.77t14.82,18.29q.69,4.5.69,57.53l-21.49-4.85q1.05-59.43-.86-62.91-3.12-5.88-10.31-3.55a49,49,0,0,0-14.91,8.41,95.9,95.9,0,0,0-14.47,14.21v48.69l-22.53-4.85v-83Z" transform="translate(-44.9 -357.67)"/><path class="cls-1" d="M948.31,689.55q4.86,5.9,10.92,7.28A19.71,19.71,0,0,0,972,695.18a77.23,77.23,0,0,0,11.18-6.07q4.5-3,10.57-8.05l3.46,3.46q3.3,3.65,6.59,7.28l3.47,3.47q-15.09,11.09-25.48,14.82a29.17,29.17,0,0,1-20.62-.09q-14.91-5.71-28.08-20.1a35.3,35.3,0,0,1-9-20.54,44.87,44.87,0,0,1,3-22.1,43.54,43.54,0,0,1,13.17-17.41,30.39,30.39,0,0,1,19.5-7.2q6.93,0,20.54,8.93A165.34,165.34,0,0,1,1002.9,649q-.17.51-13.77,10.65t-27.3,20Zm-4-16.64,39.34-26.86q-12.48-8-21.23-5.89T949,651Q944.33,659.74,944.33,672.91Z" transform="translate(-44.9 -357.67)"/><path class="cls-1" d="M1036.18,711.21A27.46,27.46,0,0,1,1023,698.56q.36-2.77,5.2-7.11t7.8-5a26,26,0,0,1,13,12.3Q1046,706.19,1036.18,711.21Z" transform="translate(-44.9 -357.67)"/><path class="cls-1" d="M354.94,440.82a27.48,27.48,0,0,1-13.17-12.65q.35-2.76,5.2-7.1t7.8-5a26,26,0,0,1,13,12.31Q364.82,435.8,354.94,440.82Zm10.4,15.43v83l-21.66-4.85v-83Z" transform="translate(-44.9 -357.67)"/><path class="cls-1" d="M450.78,457.11l-1.91,9.36q-16.81-3.81-22.18-3.12a18.15,18.15,0,0,0-13.35,8.23q-4.84,7.2-3.46,13.78c.23,1,2.88.93,8-.34s10.63-2.57,16.64-3.9,9.87-1.53,11.61-.61q12,6.24,16.11,16.46t1,19.5q-3.21,9.27-13.09,16t-23.74,6.76a38.38,38.38,0,0,1-21.23-6.33q-9.8-6.31-23-19l3.12-5.9a65.92,65.92,0,0,0,25,11.88,36.63,36.63,0,0,0,24.53-2.34q11.34-5.37,15.16-19.76c.11-.46-.41-.63-1.56-.52a82.64,82.64,0,0,0-9.53,2.25q-24.09,6.42-30.68,3.82l-1.56-.87a69.28,69.28,0,0,1-15.42-15.94,17.1,17.1,0,0,1-3.55-12.48A27.15,27.15,0,0,1,392,462.05a26.81,26.81,0,0,1,10.91-9,35.87,35.87,0,0,1,15.95-3.55,36.67,36.67,0,0,1,7.36,1q4.77,1,13.52,3.55T450.78,457.11Z" transform="translate(-44.9 -357.67)"/><path class="cls-1" d="M551.46,463.18l-6.24,9q-2.6-.87-6.06-2.17c-2.31-.86-4.1-1.5-5.37-1.9l-4.16-1.3a32.48,32.48,0,0,0-3.73-.95,14.94,14.94,0,0,0-2.69-.26q-11.26.51-19.06,14.55-7.45,13.51-5.72,27.21,1.56,13.7,12.13,15.25,12.31,1.74,32.93-14.21l3.29,3.81q3.47,3.82,6.76,7.8l3.3,3.82q-6.76,5-11.88,8.14a60.66,60.66,0,0,1-10.48,5.11A28.57,28.57,0,0,1,524,539a30.37,30.37,0,0,1-10.48-2.17q-14.91-5.72-28.08-20.1a33.12,33.12,0,0,1-8.57-20.54A43.31,43.31,0,0,1,481,474.1a46.91,46.91,0,0,1,14.64-17.42,34.79,34.79,0,0,1,21.14-7.19Q522.17,449.49,551.46,463.18Z" transform="translate(-44.9 -357.67)"/><path class="cls-1" d="M594.09,416v48.18Q610.22,448.8,622,449.66q5.54.36,19.49,13.78t14.82,18.28q.69,4.51.69,57.54l-21.49-4.85q1.05-59.44-.87-62.91Q631.36,465.44,624,468a49.36,49.36,0,0,0-15.25,9,109.53,109.53,0,0,0-14.65,14.64v47.66l-21.66-4.85V411.19Z" transform="translate(-44.9 -357.67)"/><path class="cls-1" d="M683.34,473.4,674,457.63q12.13-3.11,26.95-5.89t18.63-2.6q3.81.18,15.25,11.35t15.43,17.07q1.38,2.08,1.38,13.95t-.43,27.13q-.44,15.24-.26,20.62l-21.49-5,.17-8.84q-14,14-22.87,14-8.32-.16-21.15-15.77t-12.82-22.35q0-5.37,7.28-9.88a60.52,60.52,0,0,1,17.76-7q10.49-2.51,18.63-3.9t13.87-1.91l.17-4.68q.16-8.31-8.84-9-8.31-.51-35,7.45h-.17l-.17.18h-.35l-.17.17h-.35l-.17.17h-.35l-.17.18h-.52l-.18.17h-.34l-.17.17ZM692,516.9q1.56,2.43,5.89,3.12c2.88.47,7.25-.31,13.08-2.34s12.16-5.57,19-10.65l.17-15.26Q684.38,505.12,692,516.9Z" transform="translate(-44.9 -357.67)"/><path class="cls-1" d="M793.91,416V539.26l-21.66-4.85V411.19Z" transform="translate(-44.9 -357.67)"/><path class="cls-1" d="M44.9,707.4V485.91q0-58.25,34.87-93.24t92.87-35q57.75,0,88.37,34t30.62,97.74v218H190.14v-218q0-31.25-22.25-31.24-21.49,0-21.5,31.24v218Z" transform="translate(-44.9 -357.67)"/></svg>