<svg id="Layer_1" data-name="Layer 1" xmlns="http://www.w3.org/2000/svg" viewBox="0 0 666.83 261.49"><defs><style>.cls-1{fill:#fff;}</style></defs><path class="cls-1" d="M461.44,657.07a13.28,13.28,0,0,0,7.25,4.84,13,13,0,0,0,8.46-1.1,51.71,51.71,0,0,0,7.42-4q3-2,7-5.36l2.31,2.31,4.37,4.83,2.3,2.3q-10,7.36-16.92,9.84a19.33,19.33,0,0,1-13.69-.06q-9.9-3.79-18.65-13.35a23.37,23.37,0,0,1-6-13.63,29.77,29.77,0,0,1,2-14.68,29,29,0,0,1,8.75-11.57,20.19,20.19,0,0,1,13-4.77q4.59,0,13.63,5.93a109.18,109.18,0,0,1,15,11.56q-.1.35-9.15,7.08t-18.12,13.29ZM458.79,646l26.13-17.83q-8.3-5.3-14.1-3.92a13.37,13.37,0,0,0-8.92,7.2Q458.79,637.28,458.79,646Z" transform="translate(-191.9 -436.67)"/><path class="cls-1" d="M549.37,614l14.38,3.22v55.13l-14.38-3.22V663.4q-9.21,9.44-17,8.87-3.68-.24-13.12-8.52t-10-11.51q-.46-3-.46-38.21L523,617.25q-.57,39.6.58,42,2.29,3.22,7,2.07t10.36-6.56a35.74,35.74,0,0,0,8.46-11.85Z" transform="translate(-191.9 -436.67)"/><path class="cls-1" d="M604,671.8a31.61,31.61,0,0,1-6.68-2.87,63.39,63.39,0,0,1-6-3.57v32.8L577,694.94q-.35-76.53,0-78.15,7.25-2.07,11.57-2.93a67.66,67.66,0,0,1,9.84-1.15,28.24,28.24,0,0,1,10.53,1.38,45,45,0,0,1,10.3,5.12,29.29,29.29,0,0,1,10.13,10.87,23.51,23.51,0,0,1,2.82,12.32,34.24,34.24,0,0,1-3.11,12,35.08,35.08,0,0,1-6.85,10.13,28,28,0,0,1-9,6.27A14.35,14.35,0,0,1,604,671.8Zm7.71-17.26a37.05,37.05,0,0,0,4.77-8.57,26.54,26.54,0,0,0,2-8.58,27.42,27.42,0,0,0-.69-7.65,11.42,11.42,0,0,0-3.28-5.87,12.66,12.66,0,0,0-5.58-3,14.12,14.12,0,0,0-7.77.69,35.41,35.41,0,0,0-9.78,5.29l-.23,32.58a12.71,12.71,0,0,0,5.29,1.84,16.91,16.91,0,0,0,7.65-1A16.24,16.24,0,0,0,611.75,654.54Z" transform="translate(-191.9 -436.67)"/><path class="cls-1" d="M649.73,628.53l-6.22-10.47q8.06-2.07,17.9-3.92t12.37-1.72q2.54.12,10.13,7.54t10.24,11.33q.92,1.38.92,9.27t-.29,18q-.28,10.13-.17,13.7l-14.27-3.34.12-5.87q-9.33,9.32-15.2,9.32-5.52-.12-14-10.47t-8.51-14.85c0-2.38,1.61-4.56,4.83-6.56a40,40,0,0,1,11.8-4.66q7-1.67,12.37-2.59c3.6-.61,6.67-1,9.21-1.27l.11-3.1q.12-5.53-5.87-6-5.52-.35-23.25,5h-.11l-.12.12h-.23l-.11.11h-.23l-.12.12h-.23l-.11.11h-.35l-.11.12H650l-.12.11Zm5.75,28.89a5.39,5.39,0,0,0,3.91,2.07q2.88.46,8.69-1.55a48,48,0,0,0,12.61-7.08l.11-10.13Q650.41,649.6,655.48,657.42Z" transform="translate(-191.9 -436.67)"/><path class="cls-1" d="M723.73,617.14v4.72q10.24-9.55,17.95-9.1,3.69.24,13,9.15t9.84,12.14q.46,3,.46,38.22L750.66,669q.69-39.46-.58-41.78-2.07-3.9-6.84-2.35a32.28,32.28,0,0,0-9.9,5.58,63.24,63.24,0,0,0-9.61,9.43v32.35l-15-3.23V613.91Z" transform="translate(-191.9 -436.67)"/><path class="cls-1" d="M791.86,657.07a13.32,13.32,0,0,0,7.25,4.84,13,13,0,0,0,8.46-1.1,52.42,52.42,0,0,0,7.43-4q3-2,7-5.36l2.3,2.31,4.37,4.83,2.3,2.3q-10,7.36-16.92,9.84a19.33,19.33,0,0,1-13.69-.06q-9.9-3.79-18.65-13.35a23.43,23.43,0,0,1-6-13.63,29.77,29.77,0,0,1,2-14.68,29,29,0,0,1,8.75-11.57,20.21,20.21,0,0,1,13-4.77q4.6,0,13.64,5.93a110.42,110.42,0,0,1,15,11.56q-.12.35-9.15,7.08t-18.13,13.29ZM789.21,646l26.13-17.83q-8.28-5.3-14.1-3.92a13.39,13.39,0,0,0-8.92,7.2Q789.21,637.28,789.21,646Z" transform="translate(-191.9 -436.67)"/><path class="cls-1" d="M850.21,671.46a18.27,18.27,0,0,1-8.75-8.4q.24-1.84,3.46-4.72c2.15-1.92,3.87-3,5.18-3.34a17.28,17.28,0,0,1,8.63,8.17C857.42,666.47,854.59,669.23,850.21,671.46Z" transform="translate(-191.9 -436.67)"/><path class="cls-1" d="M397.8,491.89a18.27,18.27,0,0,1-8.75-8.4c.16-1.22,1.31-2.8,3.46-4.72s3.87-3,5.18-3.33a17.19,17.19,0,0,1,8.63,8.17Q404.36,488.56,397.8,491.89Zm6.91,10.25v55.13L390.32,554V498.91Z" transform="translate(-191.9 -436.67)"/><path class="cls-1" d="M461.44,502.71l-1.26,6.22c-7.44-1.69-12.36-2.38-14.73-2.07a12,12,0,0,0-8.87,5.46q-3.21,4.78-2.3,9.15c.16.69,1.92.62,5.3-.23s7.06-1.7,11.05-2.59,6.56-1,7.71-.4q7.94,4.14,10.7,10.93a17.91,17.91,0,0,1,.63,13q-2.13,6.17-8.69,10.65a27.25,27.25,0,0,1-15.76,4.49,25.48,25.48,0,0,1-14.1-4.21,106.75,106.75,0,0,1-15.25-12.6l2.07-3.91a43.91,43.91,0,0,0,16.57,7.88,24.26,24.26,0,0,0,16.29-1.55q7.53-3.57,10.07-13.12c.07-.31-.27-.42-1-.35a55.19,55.19,0,0,0-6.33,1.5q-16,4.26-20.37,2.53l-1-.57a46,46,0,0,1-10.25-10.59,11.38,11.38,0,0,1-2.36-8.29,18.17,18.17,0,0,1,2.94-8,17.86,17.86,0,0,1,7.25-6,23.84,23.84,0,0,1,10.59-2.36,24.76,24.76,0,0,1,4.89.69q3.16.69,9,2.36C458,501.81,460.45,502.48,461.44,502.71Z" transform="translate(-191.9 -436.67)"/><path class="cls-1" d="M528.31,506.74l-4.14,6c-1.15-.38-2.5-.86-4-1.43s-2.72-1-3.57-1.27-1.76-.56-2.76-.86a21.83,21.83,0,0,0-2.48-.64,10.75,10.75,0,0,0-1.78-.17q-7.49.34-12.66,9.67a29.21,29.21,0,0,0-3.8,18.07q1,9.09,8.06,10.13,8.18,1.14,21.87-9.44l2.18,2.53c1.54,1.69,3,3.42,4.49,5.18l2.19,2.53q-4.49,3.35-7.88,5.41a41.11,41.11,0,0,1-7,3.4,19,19,0,0,1-7,1.26,20,20,0,0,1-7-1.44q-9.9-3.79-18.65-13.35a22,22,0,0,1-5.7-13.63A28.86,28.86,0,0,1,481.53,514a31.09,31.09,0,0,1,9.72-11.57,23.12,23.12,0,0,1,14-4.77Q508.86,497.65,528.31,506.74Z" transform="translate(-191.9 -436.67)"/><path class="cls-1" d="M556.62,475.44v32q10.71-10.24,18.53-9.67,3.69.24,13,9.15t9.84,12.14q.46,3,.46,38.22L584.13,554q.69-39.46-.58-41.78c-1.46-2.68-3.81-3.47-7.08-2.35a32.84,32.84,0,0,0-10.12,6,72.73,72.73,0,0,0-9.73,9.73v31.65L542.24,554V472.21Z" transform="translate(-191.9 -436.67)"/><path class="cls-1" d="M615.89,513.53l-6.21-10.47q8.05-2.07,17.89-3.92T640,497.42q2.52.12,10.12,7.54t10.25,11.33q.91,1.38.92,9.27t-.29,18q-.29,10.13-.17,13.7l-14.27-3.34.11-5.87q-9.32,9.32-15.19,9.32-5.52-.12-14-10.47t-8.52-14.85c0-2.38,1.61-4.56,4.84-6.56a40.08,40.08,0,0,1,11.79-4.66q7-1.67,12.37-2.59c3.61-.61,6.68-1,9.21-1.27l.12-3.1q.1-5.53-5.87-6-5.54-.34-23.25,5H618l-.11.12h-.23l-.12.11h-.23l-.11.12h-.23l-.12.11h-.34l-.12.12h-.23l-.11.11Zm5.76,28.89a5.39,5.39,0,0,0,3.91,2.07c1.92.31,4.81-.21,8.69-1.55a48.09,48.09,0,0,0,12.6-7.08l.12-10.13Q616.58,534.6,621.65,542.42Z" transform="translate(-191.9 -436.67)"/><path class="cls-1" d="M689.32,475.44v81.83L674.93,554V472.21Z" transform="translate(-191.9 -436.67)"/><path class="cls-1" d="M191.9,668.93V521.84q0-38.69,23.16-61.93t61.67-23.24q38.36,0,58.69,22.58t20.34,64.91V668.93H288.35V524.16q0-20.75-14.77-20.75-14.28,0-14.28,20.75V668.93Z" transform="translate(-191.9 -436.67)"/></svg>